<?xml version="1.0" encoding="UTF-8" standalone="no"?>
<svg
   width="59.997505pt"
   height="39.855576pt"
   viewBox="0 0 59.997504 39.855574"
   version="1.1"
   id="svg30"
   sodipodi:docname="Tralodi Logo.ai"
   inkscape:export-filename="../../../../Documents/Repos/tralodi-ecommerce/public/favicon32x32.svg"
   inkscape:export-xdpi="10.869001"
   inkscape:export-ydpi="10.869001"
   xmlns:inkscape="http://www.inkscape.org/namespaces/inkscape"
   xmlns:sodipodi="http://sodipodi.sourceforge.net/DTD/sodipodi-0.dtd"
   xmlns="http://www.w3.org/2000/svg"
   xmlns:svg="http://www.w3.org/2000/svg">
  <sodipodi:namedview
     id="namedview32"
     pagecolor="#ffffff"
     bordercolor="#000000"
     borderopacity="0.25"
     inkscape:showpageshadow="2"
     inkscape:pageopacity="0.0"
     inkscape:pagecheckerboard="0"
     inkscape:deskcolor="#d1d1d1"
     inkscape:document-units="pt"
     showgrid="false" />
  <defs
     id="defs18">
    <filter
       id="filter-remove-color"
       x="0"
       y="0"
       width="1"
       height="1">
      <feColorMatrix
         color-interpolation-filters="sRGB"
         values="0 0 0 0 1 0 0 0 0 1 0 0 0 0 1 0 0 0 1 0"
         id="feColorMatrix2" />
    </filter>
  </defs>
  <path
     fill-rule="evenodd"
     fill="#ffe632"
     fill-opacity="1"
     d="m 43.013615,35.217884 c -0.0742,0.0469 -0.16406,0.0742 -0.27343,0.0742 h -0.33985 v -0.58985 h 0.3086 c 0.15625,0 0.26171,0.0234 0.32421,0.0703 0.0625,0.043 0.0937,0.125 0.0937,0.23829 0,0.0898 -0.0391,0.16015 -0.11328,0.20703 m 0.46094,0.86328 v -0.13281 c 0,-0.1211 -0.0195,-0.22657 -0.0625,-0.3125 -0.043,-0.0859 -0.11719,-0.15235 -0.21484,-0.19922 0.0937,-0.0469 0.16406,-0.10938 0.21484,-0.17969 0.0469,-0.0742 0.0703,-0.15625 0.0703,-0.25391 0,-0.20312 -0.0703,-0.35937 -0.20703,-0.46484 -0.13672,-0.10938 -0.32422,-0.16016 -0.5664,-0.16016 h -0.66797 v 2.04688 h 0.35937 v -0.8086 h 0.375 c 0.1211,0 0.20703,0.0273 0.26172,0.082 0.0508,0.0547 0.0781,0.13671 0.0781,0.2539 v 0.12891 c 0,0.0664 0.004,0.13281 0.004,0.19922 0.004,0.0625 0.0117,0.11328 0.0273,0.14453 h 0.37109 v -0.0352 c -0.0156,-0.0352 -0.0273,-0.0781 -0.0312,-0.1289 -0.008,-0.0547 -0.0117,-0.11329 -0.0117,-0.17969 m 0.25781,0.42187 c -0.27343,0.28907 -0.60156,0.4336 -0.98828,0.4336 -0.39062,0 -0.72265,-0.14453 -0.99609,-0.4336 -0.26953,-0.28906 -0.40625,-0.64843 -0.40625,-1.07422 0,-0.42187 0.13672,-0.77734 0.40625,-1.0664 0.27344,-0.28906 0.60156,-0.4336 0.99609,-0.4336 0.38672,0 0.71485,0.14454 0.98828,0.4336 0.27344,0.28906 0.40625,0.64453 0.40625,1.0664 0,0.42579 -0.13281,0.78516 -0.40625,1.07422 m -0.98828,-2.875 c -0.47265,0 -0.87109,0.17188 -1.19922,0.51953 -0.32812,0.34766 -0.49609,0.77735 -0.49609,1.28125 0,0.50782 0.16797,0.9375 0.49609,1.28907 0.32813,0.34765 0.72657,0.52343 1.19922,0.52343 0.46485,0 0.86328,-0.17578 1.19141,-0.52343 0.33203,-0.35157 0.49609,-0.78125 0.49609,-1.28907 0,-0.5039 -0.16406,-0.93359 -0.49219,-1.28125 -0.32812,-0.34765 -0.73046,-0.51953 -1.19531,-0.51953 M 58.740205,3.1357395 c -3.67187,-4.773437 -16.66796,-2.105469 -32.69531,9.6914055 -0.71093,0.519531 -1.59375,0.875 -2.35156,0.5625 l -1.429688,-0.589843 c -0.140624,-0.05469 -0.292968,0.04687 -0.289062,0.199218 l 0.03516,2.34375 c 0.01172,0.828125 -0.460937,1.707032 -1.007812,2.410156 l -2.675782,3.257813 c -0.140624,0.179687 0.04297,0.429687 0.25,0.351563 l 3.84375,-1.574219 c 0.867154,-0.320203 1.843714,-0.566297 2.652314,-0.261609 l 2.3789,0.902344 c 0.14453,0.05469 0.29688,-0.06641 0.27735,-0.222656 l -0.22266,-1.863282 c -0.10547,-0.875 0.42188,-1.648437 1.30859,-2.1875 4.67188,-2.839844 10.51172,-5.488281 13.77344,-6.6249995 0.24219,-0.08203 0.1836,-0.445312 -0.0703,-0.441406 -1.26563,0.03125 -4.51563,0.492188 -8.30859,2.0820305 -0.40625,0.167969 -0.47657,-0.296875 -0.21485,-0.464843 5.375,-3.4140625 12.47656,-6.0312495 13.82813,-4.8671875 2.05859,1.773438 -4.26953,8.8359375 -13.17969,13.9882805 -14.890626,8.605469 -21.898439,6.992188 -22.718751,5.28125 -1.726563,-3.605469 4.757812,-14.589843 24.898441,-24.30468654 0.22656,-0.113282 0.44531,-0.316406 0.34375,-0.601563 -0.082,-0.234375 -0.40235,-0.230469 -0.6211,-0.160156 C 6.2558146,9.8545995 -3.1035604,27.745224 0.86128355,35.073354 4.5253456,41.842884 23.384725,41.881944 38.822225,32.237414 57.927685,20.299912 62.623005,8.1788185 58.740185,3.1358495"
     id="path26" />
</svg>
